<?xml version="1.0" encoding="UTF-8" standalone="no"?>
<svg
   height="48"
   viewBox="0 96 960 960"
   width="48"
   version="1.1"
   id="svg4"
   sodipodi:docname="check_circle_white.svg"
   inkscape:version="1.2.2 (732a01da63, 2022-12-09)"
   xmlns:inkscape="http://www.inkscape.org/namespaces/inkscape"
   xmlns:sodipodi="http://sodipodi.sourceforge.net/DTD/sodipodi-0.dtd"
   xmlns="http://www.w3.org/2000/svg"
   xmlns:svg="http://www.w3.org/2000/svg">
  <defs
     id="defs8" />
  <sodipodi:namedview
     id="namedview6"
     pagecolor="#505050"
     bordercolor="#eeeeee"
     borderopacity="1"
     inkscape:showpageshadow="0"
     inkscape:pageopacity="0"
     inkscape:pagecheckerboard="0"
     inkscape:deskcolor="#505050"
     showgrid="false"
     inkscape:zoom="16.75"
     inkscape:cx="20.955224"
     inkscape:cy="24.029851"
     inkscape:window-width="1920"
     inkscape:window-height="991"
     inkscape:window-x="-9"
     inkscape:window-y="-9"
     inkscape:window-maximized="1"
     inkscape:current-layer="svg4" />
  <path
     d="m421 758 283-283-46-45-237 237-120-120-45 45 165 166Zm59 218q-82 0-155-31.5t-127.5-86Q143 804 111.5 731T80 576q0-83 31.5-156t86-127Q252 239 325 207.5T480 176q83 0 156 31.5T763 293q54 54 85.5 127T880 576q0 82-31.5 155T763 858.5q-54 54.5-127 86T480 976Zm0-60q142 0 241-99.5T820 576q0-142-99-241t-241-99q-141 0-240.5 99T140 576q0 141 99.5 240.5T480 916Zm0-340Z"
     id="path2"
     style="fill:#ffffff" />
</svg>
