<?xml version="1.0" encoding="UTF-8" standalone="no"?>
<svg
   height="48"
   viewBox="0 96 960 960"
   width="48"
   version="1.1"
   id="svg4"
   sodipodi:docname="print_white.svg"
   inkscape:version="1.2.2 (732a01da63, 2022-12-09)"
   xmlns:inkscape="http://www.inkscape.org/namespaces/inkscape"
   xmlns:sodipodi="http://sodipodi.sourceforge.net/DTD/sodipodi-0.dtd"
   xmlns="http://www.w3.org/2000/svg"
   xmlns:svg="http://www.w3.org/2000/svg">
  <defs
     id="defs8" />
  <sodipodi:namedview
     id="namedview6"
     pagecolor="#505050"
     bordercolor="#eeeeee"
     borderopacity="1"
     inkscape:showpageshadow="0"
     inkscape:pageopacity="0"
     inkscape:pagecheckerboard="0"
     inkscape:deskcolor="#505050"
     showgrid="false"
     inkscape:zoom="16.75"
     inkscape:cx="20.955224"
     inkscape:cy="24.029851"
     inkscape:window-width="1920"
     inkscape:window-height="991"
     inkscape:window-x="-9"
     inkscape:window-y="-9"
     inkscape:window-maximized="1"
     inkscape:current-layer="svg4" />
  <path
     d="M658 408V276H302v132h-60V216h476v192h-60Zm-518 60h680-680Zm599 95q12 0 21-9t9-21q0-12-9-21t-21-9q-12 0-21 9t-9 21q0 12 9 21t21 9Zm-81 313V684H302v192h356Zm60 60H242V760H80V514q0-45.05 30.5-75.525Q141 408 186 408h588q45.05 0 75.525 30.475Q880 468.95 880 514v246H718v176Zm102-236V513.785Q820 494 806.775 481 793.55 468 774 468H186q-19.55 0-32.775 13.225Q140 494.45 140 514v186h102v-76h476v76h102Z"
     id="path2"
     style="fill:#ffffff" />
</svg>
