<?xml version="1.0" encoding="UTF-8" standalone="no"?>
<svg
   height="48"
   viewBox="0 96 960 960"
   width="48"
   version="1.1"
   id="svg4"
   sodipodi:docname="save_white.svg"
   inkscape:version="1.2.2 (732a01da63, 2022-12-09)"
   xmlns:inkscape="http://www.inkscape.org/namespaces/inkscape"
   xmlns:sodipodi="http://sodipodi.sourceforge.net/DTD/sodipodi-0.dtd"
   xmlns="http://www.w3.org/2000/svg"
   xmlns:svg="http://www.w3.org/2000/svg">
  <defs
     id="defs8" />
  <sodipodi:namedview
     id="namedview6"
     pagecolor="#505050"
     bordercolor="#eeeeee"
     borderopacity="1"
     inkscape:showpageshadow="0"
     inkscape:pageopacity="0"
     inkscape:pagecheckerboard="0"
     inkscape:deskcolor="#505050"
     showgrid="false"
     inkscape:zoom="16.75"
     inkscape:cx="20.955224"
     inkscape:cy="24.029851"
     inkscape:window-width="1920"
     inkscape:window-height="991"
     inkscape:window-x="-9"
     inkscape:window-y="-9"
     inkscape:window-maximized="1"
     inkscape:current-layer="svg4" />
  <path
     d="M840 373v503q0 24-18 42t-42 18H180q-24 0-42-18t-18-42V276q0-24 18-42t42-18h503l157 157Zm-60 27L656 276H180v600h600V400ZM479.765 811Q523 811 553.5 780.735q30.5-30.264 30.5-73.5Q584 664 553.735 633.5q-30.264-30.5-73.5-30.5Q437 603 406.5 633.265q-30.5 30.264-30.5 73.5Q376 750 406.265 780.5q30.264 30.5 73.5 30.5ZM233 472h358V329H233v143Zm-53-72v476-600 124Z"
     id="path2"
     style="fill:#ffffff" />
</svg>
